<?xml version="1.0" encoding="utf-8"?>
<!-- Generator: Adobe Illustrator 23.0.1, SVG Export Plug-In . SVG Version: 6.00 Build 0)  -->
<svg version="1.1" id="Layer_1" xmlns="http://www.w3.org/2000/svg" xmlns:xlink="http://www.w3.org/1999/xlink" x="0px" y="0px"
	 viewBox="0 0 166.6 186" style="enable-background:new 0 0 166.6 186;" xml:space="preserve">
<title>secure-email</title>
<title>secure-email</title>
<g>
	<path d="M137.8,177c-43.1,0-86.2,0-129.4,0c0-0.4,0-0.9,0-1.3c0-45.9,0-91.8,0-137.8c0-0.4,0-0.8,0-1.3c9.4,0,18.6,0,27.9,0
		c0,37.7,0,75.3,0,113.1c33.9,0,67.7,0,101.6,0c0,0.3,0.1,0.6,0.1,0.8c0,8.5,0,17,0,25.4C138,176.3,137.9,176.6,137.8,177z"/>
	<path d="M43.4,142.6c0-44.5,0-88.9,0-133.6c0.5,0,0.9,0,1.3,0c30.7,0,61.4,0,92.2,0c0.9,0,1.5,0.3,2.1,0.9
		c6.4,6.4,12.8,12.8,19.2,19.2c0.6,0.6,0.8,1.1,0.8,2c0,36.8,0,73.5,0,110.3c0,0.4,0,0.8,0,1.3C120.4,142.6,81.9,142.6,43.4,142.6z
		 M131.5,35.4c7.9,0,15.7,0,23.9,0c-8-7.6-15.9-15-23.9-22.5C131.5,20.5,131.5,27.9,131.5,35.4z"/>
</g>
</svg>
