<svg id="Layer_1" data-name="Layer 1" xmlns="http://www.w3.org/2000/svg" viewBox="0 0 85.9 19.8"><defs><style>.cls-1{fill:#14f2d7;}</style></defs><title>LL_powered_by_icon</title><path class="cls-1" d="M771.7,725.3h-2.9V710.2h2.9Z" transform="translate(-719.2 -710.2)"/><path class="cls-1" d="M781,725.3l-.6-1.5h-.1a4.4,4.4,0,0,1-1.5,1.3,5.6,5.6,0,0,1-2.1.4,3.2,3.2,0,0,1-2.4-.9,3.6,3.6,0,0,1-.9-2.6,2.8,2.8,0,0,1,1.2-2.5,6,6,0,0,1,3.6-.9h1.9v-.4a1.5,1.5,0,0,0-1.7-1.7,7.9,7.9,0,0,0-3,.8l-1-2a9.2,9.2,0,0,1,4.1-1,4.9,4.9,0,0,1,3.4,1,3.7,3.7,0,0,1,1.1,2.9v7.2Zm-.9-5H779a3.7,3.7,0,0,0-2,.5,1.4,1.4,0,0,0-.6,1.3c0,.8.5,1.2,1.4,1.2a2.4,2.4,0,0,0,1.7-.6,2.1,2.1,0,0,0,.6-1.6Z" transform="translate(-719.2 -710.2)"/><path class="cls-1" d="M791,714.2a3.4,3.4,0,0,1,3,1.5,7.1,7.1,0,0,1,1.1,4.1A7.2,7.2,0,0,1,794,724a3.7,3.7,0,0,1-3.1,1.5,3.6,3.6,0,0,1-2.9-1.4h-.2l-.5,1.2H785V710.2h3v3.5c0,.5-.1,1.2-.2,2.2h.2A3.3,3.3,0,0,1,791,714.2Zm-.9,2.4a1.7,1.7,0,0,0-1.6.7,3.3,3.3,0,0,0-.5,2.2v.3a4.1,4.1,0,0,0,.5,2.5,1.8,1.8,0,0,0,1.6.8,1.8,1.8,0,0,0,1.5-.9,6,6,0,0,0,0-4.8A1.9,1.9,0,0,0,790.1,716.6Z" transform="translate(-719.2 -710.2)"/><path class="cls-1" d="M805.1,722.1a3.1,3.1,0,0,1-1.1,2.5,5.8,5.8,0,0,1-3.5.9l-2-.2-1.6-.5v-2.4a10.6,10.6,0,0,0,1.9.6l1.8.3c1.1,0,1.6-.3,1.6-.9a1.1,1.1,0,0,0-.2-.6l-.7-.5-1.4-.6-1.9-1a3.9,3.9,0,0,1-.8-1,3.2,3.2,0,0,1-.3-1.4A2.8,2.8,0,0,1,798,715a5.8,5.8,0,0,1,3.2-.8,8.5,8.5,0,0,1,3.8.9l-.9,2.1-1.5-.5a3.5,3.5,0,0,0-1.4-.3c-.9,0-1.3.3-1.3.7a.8.8,0,0,0,.4.7l1.8.9a6.7,6.7,0,0,1,1.9.9,2.1,2.1,0,0,1,.8,1.1A2.9,2.9,0,0,1,805.1,722.1Z" transform="translate(-719.2 -710.2)"/><path d="M722.2,725.3h-3V710.2h3Z" transform="translate(-719.2 -710.2)"/><path d="M734.1,719.8a6.1,6.1,0,0,1-1.4,4.2,5,5,0,0,1-3.9,1.5,6,6,0,0,1-2.7-.7,5.2,5.2,0,0,1-1.9-2,6.7,6.7,0,0,1-.6-3,6,6,0,0,1,1.4-4.1,5,5,0,0,1,3.9-1.5,6,6,0,0,1,2.7.7,4.4,4.4,0,0,1,1.8,2A5.4,5.4,0,0,1,734.1,719.8Zm-7.5,0a5.5,5.5,0,0,0,.5,2.5,2.1,2.1,0,0,0,1.7.8,1.9,1.9,0,0,0,1.7-.8,4.4,4.4,0,0,0,.6-2.5,4.3,4.3,0,0,0-.6-2.4,1.9,1.9,0,0,0-1.7-.8,2,2,0,0,0-1.7.8A5.4,5.4,0,0,0,726.6,719.8Z" transform="translate(-719.2 -710.2)"/><path d="M745,714.5v1.4l-1.6.5a2.9,2.9,0,0,1,.4,1.6,3.2,3.2,0,0,1-1.2,2.7,4.9,4.9,0,0,1-3.4,1h-.9a1,1,0,0,0-.5.8c0,.4.6.6,1.6.6h1.9a4.1,4.1,0,0,1,2.7.8,2.7,2.7,0,0,1,.9,2.2,3.3,3.3,0,0,1-1.6,3,7.9,7.9,0,0,1-4.5,1,5.9,5.9,0,0,1-3.5-.8,2.4,2.4,0,0,1-1.2-2.2,2.4,2.4,0,0,1,.7-1.6,3.2,3.2,0,0,1,1.7-1,1.3,1.3,0,0,1-.7-.6,1.2,1.2,0,0,1-.4-.9,1.2,1.2,0,0,1,.4-1,4.5,4.5,0,0,1,1-.9,2.4,2.4,0,0,1-1.3-1.1,3.2,3.2,0,0,1-.5-1.9,3.4,3.4,0,0,1,1.1-2.8,5.4,5.4,0,0,1,3.3-1h1.1l.8.2Zm-8.3,12.3a1,1,0,0,0,.6.9,2.5,2.5,0,0,0,1.6.4,7.6,7.6,0,0,0,2.5-.4,1.4,1.4,0,0,0,.9-1.2,1.1,1.1,0,0,0-.5-.9l-1.7-.2h-1.5a2.3,2.3,0,0,0-1.4.4A1.2,1.2,0,0,0,736.7,726.8Zm1.1-8.8a2.1,2.1,0,0,0,.4,1.4,1.7,1.7,0,0,0,2.4,0,2.1,2.1,0,0,0,.4-1.4c0-1.3-.5-2-1.6-2S737.8,716.7,737.8,718Z" transform="translate(-719.2 -710.2)"/><path d="M755.6,719.8a5.6,5.6,0,0,1-1.4,4.2,4.9,4.9,0,0,1-3.8,1.5,6.1,6.1,0,0,1-2.8-.7,4.4,4.4,0,0,1-1.8-2,6.7,6.7,0,0,1-.6-3,5.9,5.9,0,0,1,1.3-4.1,5.3,5.3,0,0,1,3.9-1.5,6.1,6.1,0,0,1,2.8.7,4.4,4.4,0,0,1,1.8,2A6.5,6.5,0,0,1,755.6,719.8Zm-7.4,0a4.4,4.4,0,0,0,.5,2.5,2.2,2.2,0,0,0,3.4,0,5.5,5.5,0,0,0,.5-2.5,5.4,5.4,0,0,0-.5-2.4,2.2,2.2,0,0,0-3.4,0A4.3,4.3,0,0,0,748.2,719.8Z" transform="translate(-719.2 -710.2)"/><path d="M765.8,715.3a3.8,3.8,0,0,0-2.9-1.1,4.6,4.6,0,0,0-2,.5,2.8,2.8,0,0,0-1.3,1.1h-.2l-.4-1.3h-2.2v10.8h2.9v-5.1a5.1,5.1,0,0,1,.6-2.8,1.9,1.9,0,0,1,1.8-.8,1.5,1.5,0,0,1,1.3.6,2.9,2.9,0,0,1,.4,1.7v4.6l-2.4,1.8h5.4v-7.1A4,4,0,0,0,765.8,715.3Z" transform="translate(-719.2 -710.2)"/><path d="M763.1,720.3a.9.9,0,0,0-.8-.9.8.8,0,0,0-.8.9.8.8,0,0,0,.8.8A.9.9,0,0,0,763.1,720.3Z" transform="translate(-719.2 -710.2)"/></svg>